# xmcd CD database file
#
# Track frame offsets:
#	150
#	13582
#	26005
#	41630
#	59270
#	72702
#	82437
#	94592
#	116250
#	129395
#	143545
#	155532
#	167302
#	180500
#	192157
#
# Disc length: 2940 seconds
#
# Revision: 0
# Processed by: cddbd v1.4PL0 Copyright (c) Steve Scherf et al.
# Submitted via: CDex 1.40Beta6
#
DISCID=c30b7a0f
DTITLE=Ray Charles - Selection of Ray Charles De Luxe Disc 2
DYEAR=1996
DGENRE=Blues
TTITLE0=Take These Chains From My Heart
TTITLE1=It Had To Be You
TTITLE2=You And I
TTITLE3=Ruby
TTITLE4=Crying Time
TTITLE5=Busted
TTITLE6=Together Again
TTITLE7=Alone Together
TTITLE8=Makin' Believe
TTITLE9=A Fool For You
TTITLE10=Lonely Avenue
TTITLE11=Hallelujah, I Love Her So
TTITLE12=Greenbacks
TTITLE13=This Little Girl Of Mine
TTITLE14=Makin' Whoopee
EXTD=
EXTT0=
EXTT1=
EXTT2=
EXTT3=
EXTT4=
EXTT5=
EXTT6=
EXTT7=
EXTT8=
EXTT9=
EXTT10=
EXTT11=
EXTT12=
EXTT13=
EXTT14=
PLAYORDER=
